<svg width="91" height="91" viewBox="0 0 91 91" fill="none" xmlns="http://www.w3.org/2000/svg">
<g clip-path="url(#clip0_139_157)">
<path d="M80.8889 15.1667H10.1111C8.77028 15.1667 7.48438 15.6994 6.53628 16.6475C5.58818 17.5956 5.05554 18.8815 5.05554 20.2223V70.7779C5.05554 72.1187 5.58818 73.4046 6.53628 74.3527C7.48438 75.3008 8.77028 75.8334 10.1111 75.8334H80.8889C82.2297 75.8334 83.5156 75.3008 84.4637 74.3527C85.4118 73.4046 85.9444 72.1187 85.9444 70.7779V20.2223C85.9444 18.8815 85.4118 17.5956 84.4637 16.6475C83.5156 15.6994 82.2297 15.1667 80.8889 15.1667ZM76.9961 70.7779H14.3072L32.0017 52.4767L28.3617 48.9631L10.1111 67.8456V24.0645L41.5314 55.3331C42.4786 56.2747 43.7599 56.8033 45.0955 56.8033C46.4311 56.8033 47.7125 56.2747 48.6597 55.3331L80.8889 23.2809V67.517L62.2844 48.9126L58.7203 52.4767L76.9961 70.7779ZM13.4225 20.2223H76.7939L45.0955 51.7437L13.4225 20.2223Z" fill="#B17457"/>
</g>
<defs>
<clipPath id="clip0_139_157">
<rect width="91" height="91" fill="white"/>
</clipPath>
</defs>
</svg>
