<svg width="111" height="66" viewBox="0 0 111 66" fill="none" xmlns="http://www.w3.org/2000/svg">
<path d="M20.8132 45.8545L18.2949 50.6521L13.731 48.2565L11.3142 52.8607L25.006 60.0476L27.4228 55.4433L22.8589 53.0477L25.3772 48.2501C33.0785 51.1121 41.9387 49.1324 47.6962 42.9548C49.449 41.0794 50.8612 38.6552 51.8966 35.7455L57.2421 20.7596C57.452 20.1703 57.4439 19.5262 57.2194 18.9456C56.9949 18.3649 56.5689 17.8867 56.0198 17.5985L28.6362 3.22477C28.0871 2.93646 27.4515 2.85756 26.8461 3.00256C26.2407 3.14756 25.706 3.50673 25.3402 4.01416L16.0459 16.9243C14.238 19.4315 13.0448 21.9707 12.4981 24.4762C10.6803 32.7248 14.0834 41.1415 20.8132 45.8545ZM51.6245 21.1643L48.0917 31.0555L22.0613 17.3921L28.1979 8.86753L51.6245 21.1643Z" fill="black"/>
<path d="M85.6226 48.253L88.1479 53.0469L83.5875 55.4492L86.0109 60.0499L99.6923 52.8432L97.2688 48.2424L92.7083 50.6447L90.1831 45.8507C96.906 41.128 100.297 32.7064 98.4706 24.4615C97.919 21.9545 96.7222 19.417 94.9119 16.9148L85.5953 4.01703C85.2287 3.51013 84.6935 3.15174 84.0879 3.00762C83.4823 2.8635 82.8469 2.94332 82.2982 3.23243L54.9355 17.6459C54.3868 17.9349 53.9615 18.4138 53.7379 18.9948C53.5142 19.5757 53.507 20.2198 53.7178 20.8088L59.0861 35.7834C60.1269 38.6939 61.5426 41.116 63.297 42.9866C69.0624 49.1594 77.9255 51.1262 85.6226 48.253ZM82.7447 8.87455L88.8914 17.3914L62.8809 31.0926L59.3359 21.2053L82.7447 8.87455Z" fill="black"/>
</svg>
